<?xml version="1.0" encoding="utf-8"?>
<!-- Generator: Adobe Illustrator 26.5.0, SVG Export Plug-In . SVG Version: 6.00 Build 0)  -->
<svg version="1.1" id="Layer_1" xmlns="http://www.w3.org/2000/svg" xmlns:xlink="http://www.w3.org/1999/xlink" x="0px" y="0px"
	 viewBox="0 0 56.7 56.7" style="enable-background:new 0 0 56.7 56.7;" xml:space="preserve">
<g>
	<path d="M51.7,5c-5.5-5.5-14.5-5.5-20,0l-9.2,9.2c-1,1-1.7,2-2.4,3.1c3.1-0.9,6.5-0.7,9.6,0.4l7.4-7.4c2.5-2.5,6.7-2.5,9.2,0
		c2.5,2.5,2.5,6.7,0,9.2L40,25.9l-3,3c-0.2,0.2-0.5,0.5-0.8,0.7c-1.9,1.4-4.5,1.6-6.6,0.6c0,0,0,0-0.1,0c-0.1,0-0.3-0.1-0.6-0.3
		c0,0,0,0,0,0c-0.3-0.1-0.6-0.3-1-0.6c-0.1-0.1-0.1-0.1-0.2-0.2c-0.2-0.2-0.5-0.5-0.8-0.6c0,0,0,0,0,0v0c-1.2-0.8-2.7-1-4-0.6
		c-0.8,0.2-1.6,0.6-2.2,1.3l-1.1,1.1c0.5,1.1,1.2,2.2,2,3.2c0.3,0.3,0.6,0.7,0.9,1c5.5,5.5,14.5,5.5,20,0l2.1-2.1l7.1-7.1
		C57.2,19.5,57.2,10.5,51.7,5z"/>
	<path d="M27,38.9l-7.4,7.4c-2.5,2.5-6.7,2.5-9.2,0c-2.5-2.5-2.5-6.7,0-9.2l2.4-2.4l5-5l1.9-1.9c0.1-0.1,0.3-0.3,0.5-0.4
		c0.1-0.1,0.1-0.1,0.2-0.2c0,0,0.1-0.1,0.1-0.1c0.1,0,0.1-0.1,0.2-0.1c0.1-0.1,0.2-0.1,0.3-0.2c0.1,0,0.1-0.1,0.2-0.1
		c0.1-0.1,0.2-0.1,0.3-0.2c0.1,0,0.1-0.1,0.2-0.1c0.1-0.1,0.2-0.1,0.4-0.2c0,0,0.1,0,0.1,0c0.6-0.2,1.3-0.4,2-0.4c0,0,0,0,0.1,0
		c0.1,0,0.3,0,0.4,0c0.1,0,0.1,0,0.2,0c0.1,0,0.2,0,0.3,0c0.1,0,0.2,0,0.3,0c0.1,0,0.2,0,0.3,0.1c0.1,0,0.2,0,0.3,0.1
		c0.1,0,0.2,0,0.3,0.1c0.1,0,0.2,0.1,0.3,0.1c0,0,0,0,0,0c0.1,0,0.2,0.1,0.3,0.1c0.1,0,0.2,0.1,0.3,0.2c0.1,0,0.1,0.1,0.2,0.1
		c0.2,0.1,0.3,0.2,0.5,0.3c0.2,0.1,0.4,0.2,0.5,0.4c0,0,0,0,0,0c0.2,0.1,0.3,0.3,0.5,0.4c0.2,0.2,0.3,0.3,0.4,0.5l0.1-0.1
		c0.4,0.3,0.7,0.3,0.7,0.3l0.2,0l0.1,0.1c1.9,0.9,4.2,0.5,5.6-1l1.1-1.1c-0.7-1.5-1.6-2.9-2.9-4.2c-5.5-5.5-14.5-5.5-20,0L5,31.7
		c-0.3,0.3-0.6,0.6-0.8,0.9C4.1,32.7,4,32.8,3.9,33c-0.1,0.1-0.2,0.3-0.3,0.4c-4,5.5-3.5,13.3,1.5,18.2c5.5,5.5,14.5,5.5,20,0
		l9.2-9.2c1-1,1.7-2,2.4-3.1C33.4,40.2,30.1,40,27,38.9z"/>
</g>
</svg>
