<?xml version="1.0" encoding="utf-8"?>
<!-- Generator: Adobe Illustrator 26.5.0, SVG Export Plug-In . SVG Version: 6.00 Build 0)  -->
<svg version="1.1" id="Layer_1" xmlns="http://www.w3.org/2000/svg" xmlns:xlink="http://www.w3.org/1999/xlink" x="0px" y="0px"
	 viewBox="0 0 56.7 56.7" style="enable-background:new 0 0 56.7 56.7;" xml:space="preserve">
<style type="text/css">
	.st0{fill:#FFFFFF;stroke:#FFFFFF;stroke-width:2;stroke-miterlimit:10;}
	.st1{fill:#FFFFFF;stroke:#FFFFFF;stroke-miterlimit:10;}
</style>
<g>
	<path class="st0" d="M47,0.9H18.8L6,13.6v39c0,0.8,0.4,1.5,0.9,2.1c0.6,0.5,1.4,0.9,2.3,0.9H47c1.8,0,3.2-1.3,3.2-2.9V3.9
		C50.2,2.2,48.8,0.9,47,0.9z M47.2,52.6l-0.1,0.1L47,52.8H9.2L9,52.7L9,52.6v-38L9,14.6h11l0.4-10.9H47l0.1,0.1l0.1,0.1V52.6z"/>
</g>
<rect x="15" y="20.5" class="st1" width="26.2" height="4.7"/>
<rect x="15" y="30.5" class="st1" width="26.2" height="4.9"/>
<rect x="15" y="40.5" class="st1" width="26.2" height="4.9"/>
</svg>
