<svg width="476" height="73" viewBox="0 0 476 73" fill="none" xmlns="http://www.w3.org/2000/svg">
<g clip-path="url(#clip0_1_330)">
<path fill-rule="evenodd" clip-rule="evenodd" d="M56.84 50.99H67.66V55.41H64.61V68.92H60.09L60.1 55.41H56.84V50.99Z" fill="white"/>
<path fill-rule="evenodd" clip-rule="evenodd" d="M70.23 50.97H79.39V54.78H73.68V57.62H78.97V61.27H73.68V64.82H79.57V68.88H70.23V50.97Z" fill="white"/>
<path fill-rule="evenodd" clip-rule="evenodd" d="M98.19 50.97V68.88H102.54V61.27H109.33V68.88H113.39V50.97H109.33V57.72H102.54V50.97H98.19Z" fill="white"/>
<path fill-rule="evenodd" clip-rule="evenodd" d="M91.09 64.82C84.9 64.58 85.28 54.98 91.46 55.22C92.2984 55.205 93.123 55.4343 93.8333 55.88C94.5436 56.3257 95.1088 56.9685 95.46 57.73V52.35C94.1206 51.5259 92.5914 51.0609 91.02 51C89.8381 50.954 88.6587 51.1413 87.5492 51.5511C86.4397 51.9609 85.4218 52.5853 84.5535 53.3885C83.6853 54.1917 82.9838 55.1581 82.489 56.2325C81.9943 57.3068 81.716 58.4681 81.67 59.65C81.624 60.8319 81.8113 62.0112 82.2212 63.1208C82.631 64.2303 83.2553 65.2482 84.0586 66.1164C84.8618 66.9847 85.8282 67.6862 86.9025 68.1809C87.9768 68.6757 89.1381 68.954 90.32 69C92.1203 69.065 93.9013 68.6102 95.45 67.69V62.26C95.0751 63.0778 94.4573 63.7604 93.6808 64.2148C92.9043 64.6693 92.0067 64.8736 91.11 64.8" fill="white"/>
<path fill-rule="evenodd" clip-rule="evenodd" d="M40.65 21.9999C49.7436 15.7397 59.3943 10.3302 69.48 5.83993C70.11 5.56993 70.75 5.28994 71.39 5.02994C73.714 4.08697 76.1167 3.35079 78.57 2.82994C79.04 2.74994 79.57 2.66993 80.06 2.59993C82.46 2.25993 85.18 2.05993 86.73 2.54993C86.9105 2.60495 87.0848 2.67869 87.25 2.76993C87.5782 2.94092 87.8353 3.2223 87.9762 3.56444C88.1171 3.90657 88.1326 4.28748 88.02 4.63994C87.9695 4.8689 87.8992 5.09307 87.81 5.30994C87.17 6.85993 84.97 9.88994 77.99 15.3099L71.99 15.4099C71.99 15.4099 80.78 8.58993 77.28 7.48993C77.28 7.48993 73.34 5.92993 58.6 12.8999L40.65 21.9999Z" fill="white"/>
<path fill-rule="evenodd" clip-rule="evenodd" d="M24.84 23.51H39.67V28.57H34.67V43.94H29.79V28.57H24.84V23.51Z" fill="white"/>
<path d="M69.26 23.51H63.49V43.94H69.26V23.51Z" fill="white"/>
<path d="M113.37 23.51H107.6V43.94H113.37V23.51Z" fill="white"/>
<path fill-rule="evenodd" clip-rule="evenodd" d="M78.76 32.26H80.19C81.0182 32.3296 81.845 32.1105 82.53 31.64C82.7442 31.4252 82.9123 31.169 83.0241 30.887C83.1358 30.605 83.1889 30.3032 83.18 30C83.1998 29.4046 82.9965 28.8233 82.61 28.37C82.31 28.1152 81.9607 27.9251 81.5838 27.8115C81.207 27.6979 80.8108 27.6634 80.42 27.7099H78.76V32.26ZM72.99 23.54H82.55C83.3999 23.4705 84.2549 23.5807 85.0594 23.8632C85.864 24.1458 86.6001 24.5944 87.22 25.18C87.7805 25.8082 88.2092 26.5427 88.4806 27.3397C88.752 28.1367 88.8606 28.9802 88.8 29.8199C88.8539 30.6977 88.7332 31.5774 88.4448 32.4082C88.1564 33.239 87.7061 34.0044 87.12 34.6599C85.99 35.8199 84.25 36.39 81.93 36.39H78.76V43.98H72.99V23.54Z" fill="white"/>
<path fill-rule="evenodd" clip-rule="evenodd" d="M91.78 23.51H103.63V27.88H96.2V31.13H103.07V35.29H96.2V39.33H103.85V43.94H91.78V23.51Z" fill="white"/>
<path fill-rule="evenodd" clip-rule="evenodd" d="M48.18 36.17L50.18 28.82L52.25 36.17H48.15M53.38 23.51H47.16L40.16 43.95H46.07L46.99 40.58H52.76C55.53 39 57.33 37.8 58.18 37.25L53.38 23.51ZM60.38 43.95L58.11 37.38L53.45 40.76L54.34 43.95H60.38Z" fill="white"/>
<path fill-rule="evenodd" clip-rule="evenodd" d="M21.23 44.2599C22.0527 43.4513 23.0967 42.9049 24.23 42.6899L18.54 41.5599C18.54 41.5599 17.09 42.6299 15.04 44.2599H21.23ZM48.32 43.8599H50.83L58.18 37.3799C58.18 37.3799 54.85 39.7299 48.32 43.8599ZM46.76 45.0899H46.53C45.59 45.7099 44.63 46.2899 43.62 46.9399H47.68C48.11 46.5499 48.55 46.1999 48.97 45.8099L49.75 45.1099L46.76 45.0899ZM41.59 48.0899C40.45 48.7799 39.24 49.4399 38.04 50.0899H43.56C44.46 49.4199 45.33 48.7599 46.2 48.0899H41.59ZM36.05 51.3099C35.9882 51.31 35.9282 51.2888 35.88 51.2499C34.56 51.9499 33.25 52.5999 31.94 53.2499H38.86C39.86 52.6599 40.86 52.0099 41.86 51.3399L36.05 51.3099ZM30.15 54.4099C30.1159 54.4148 30.0811 54.4119 30.0482 54.4015C30.0153 54.3911 29.9852 54.3735 29.96 54.3499H29.31C27.9629 54.9392 26.5841 55.4533 25.18 55.8899H34.33C35.17 55.4399 36.05 54.9499 36.91 54.4099H30.15ZM20.76 57.1099C20.1012 57.2608 19.4331 57.3677 18.76 57.4299C18.76 57.4299 15.03 58.3099 13.23 57.3399H1.82004C1.52217 57.7642 1.2484 58.2049 1.00004 58.6599H28.91C29.91 58.1799 30.91 57.6599 32.02 57.1399L20.76 57.1099ZM0.470039 59.8199C0.283443 60.2315 0.149069 60.6649 0.0700417 61.1099H23.07C23.98 60.7799 25.07 60.3199 26.28 59.8199H0.470039ZM0.0400391 62.3099C0.0827641 62.5538 0.153224 62.792 0.250042 63.0199C0.250042 63.0199 1.64004 66.1199 18.97 62.5199L19.62 62.3099H0.0400391ZM12.31 56.0999C12.2364 55.5633 12.3234 55.017 12.56 54.5299H4.01004C3.54291 55.0298 3.10231 55.5538 2.69004 56.0999H12.31ZM13.14 53.3099C13.1703 53.2399 13.2071 53.1729 13.25 53.1099C13.25 53.1099 13.8 52.3699 14.68 51.3099H7.06004C6.38004 51.9499 5.72004 52.6299 5.06004 53.3099H13.14ZM15.66 50.1099C16.09 49.6299 16.52 49.1099 16.96 48.6199H10.23C10.1422 48.61 10.0573 48.5828 9.98004 48.5399C9.42004 49.0499 8.85004 49.5399 8.30004 50.1099H15.66ZM18.05 47.3999C18.66 46.7599 19.32 46.0799 19.94 45.4699H13.64C12.9 46.0899 12.13 46.6999 11.35 47.4099L18.05 47.3999Z" fill="white"/>
</g>
<path d="M150.808 50.648C150.472 50.36 150.04 50.024 149.56 49.688C150.016 49.28 150.424 48.824 150.76 48.368L148.888 47.816C148.648 48.152 148.336 48.464 148.024 48.776C147.52 48.488 147.016 48.224 146.56 48.008L145.288 49.112C145.72 49.328 146.128 49.568 146.584 49.832C146.008 50.192 145.384 50.528 144.76 50.768C145.216 51.08 145.912 51.704 146.248 52.04C146.896 51.728 147.544 51.32 148.192 50.84C148.672 51.2 149.128 51.536 149.44 51.848L150.808 50.648ZM141.952 55.424H144.808V55.16C145.168 55.496 145.624 55.952 145.888 56.264H142L141.952 55.424ZM140.272 58.328H155.68V61.184H158.512V56.264H156.736C156.952 54.032 157.12 50.984 157.24 48.464H151.216V50.264H154.456L154.408 51.056H151.36V52.832H154.288L154.24 53.648H151.24V55.424H154.072L153.976 56.264H146.2C146.848 55.904 147.496 55.496 148.144 55.016C148.696 55.448 149.176 55.832 149.536 56.192L150.952 54.944C150.592 54.584 150.088 54.224 149.512 53.84C149.992 53.384 150.424 52.904 150.784 52.4L148.912 51.848C148.648 52.184 148.312 52.52 147.952 52.856C147.448 52.568 146.944 52.28 146.464 52.04L145.144 53.168C145.576 53.408 146.032 53.672 146.488 53.96C145.96 54.296 145.384 54.584 144.808 54.872V53.648H141.856L141.808 52.832H144.76V51.056H141.712L141.664 50.36C142.792 50.12 143.992 49.808 144.928 49.448L143.776 47.792C142.504 48.248 140.368 48.896 138.928 49.136L139.36 56.264H137.56V61.184H140.272V58.328ZM158.824 63.44H149.848C151.48 62.624 153.112 61.64 154.432 60.68L152.824 59.216L152.224 59.36H141.784V61.352H149.488C148.624 61.88 147.712 62.408 146.848 62.744V63.44H137.128V65.696H146.848V67.328C146.848 67.616 146.728 67.688 146.344 67.688C145.984 67.712 144.544 67.712 143.416 67.664C143.752 68.336 144.16 69.296 144.28 70.064C146.08 70.064 147.4 70.04 148.384 69.704C149.368 69.32 149.656 68.696 149.656 67.424V65.696H158.824V63.44ZM183.328 49.472H177.616V51.992H183.328V49.472ZM177.52 51.8C177.136 50.984 176.32 49.712 175.576 48.8L173.848 49.736C174.568 50.696 175.336 52.016 175.672 52.832L177.52 51.8ZM165.232 47.696C164.488 49.232 162.856 51.152 161.368 52.352C161.824 52.832 162.496 53.888 162.832 54.464C164.656 53.024 166.576 50.72 167.824 48.584L165.232 47.696ZM168.304 57.2C168.28 61.112 168.184 63.44 166.84 64.952C167.32 65.312 167.944 66.104 168.184 66.608C170.032 64.784 170.296 61.76 170.296 57.2H168.304ZM177.016 65.936C177.4 65.936 177.736 65.936 178.024 65.792C177.952 65.336 177.88 64.4 177.832 63.872C177.592 63.944 177.28 63.992 177.04 63.992H176.488C176.344 63.992 176.344 63.8 176.344 63.152V57.224H174.304V63.128C174.304 65.216 174.664 65.936 176.56 65.936H177.016ZM183.688 55.232H177.112V53.288H173.512V47.72H171.016V53.288H167.848V53.456L165.592 52.712C164.56 55.232 162.736 57.728 160.912 59.336C161.392 59.936 162.208 61.376 162.472 61.952C162.904 61.544 163.36 61.064 163.816 60.536V70.088H166.456V56.864C166.984 56 167.464 55.088 167.848 54.248V55.904H171.016V69.992H173.512V55.904H177.016V57.8H179.104V66.728C179.104 67.016 179.008 67.088 178.696 67.088C178.384 67.112 177.376 67.112 176.416 67.064C176.776 67.88 177.112 69.032 177.184 69.824C178.768 69.824 179.944 69.8 180.76 69.344C181.624 68.864 181.816 68.12 181.816 66.776V57.8H183.664L183.688 55.232ZM192.664 48.848H186.52V50.936H192.664V48.848ZM191.872 63.296H202.264V64.376H191.872V63.296ZM191.872 60.656H202.264V61.688H191.872V60.656ZM191.872 58.016H202.264V59.048H191.872V58.016ZM205.168 66.056V56.312H189.112V66.056H192.568C190.888 66.896 188.32 67.616 186.016 68.048C186.64 68.528 187.648 69.584 188.128 70.136C190.552 69.464 193.648 68.264 195.616 67.016L193.528 66.056H200.296L198.832 67.232C201.208 68.096 203.704 69.272 205.072 70.064L207.64 68.528C206.224 67.832 203.872 66.872 201.664 66.056H205.168ZM201.016 51.68V51.2H203.68C203.416 51.704 203.104 52.208 202.84 52.592L205.048 53.408C205.816 52.448 206.632 50.936 207.256 49.616L205.312 49.016L204.88 49.136H198.064C198.208 48.8 198.352 48.44 198.472 48.08L195.976 47.528C195.424 49.16 194.44 50.744 193.168 51.8C193.768 52.136 194.824 52.832 195.28 53.264C195.88 52.712 196.456 51.992 196.96 51.2H198.4V51.56C198.4 52.448 197.8 53.528 193.216 54.008V52.544H185.968V54.728H192.328C192.712 55.232 193.096 55.832 193.288 56.288C197.32 55.832 199.312 54.896 200.224 53.84C201.736 55.16 203.824 55.928 206.512 56.264C206.848 55.568 207.52 54.536 208.096 53.984C204.856 53.816 202.312 53.216 201.016 51.944V51.68ZM216.952 50.192C216.04 49.544 214.168 48.512 212.968 47.84L211.336 49.904C212.56 50.648 214.36 51.776 215.224 52.472L216.952 50.192ZM215.8 56.504C214.84 55.88 213.016 54.896 211.792 54.296L210.184 56.336C211.432 57.08 213.232 58.136 214.072 58.808L215.8 56.504ZM213.832 60.536C212.824 63.32 211.456 66.368 210.472 68.24L213.088 69.776C214.144 67.4 215.272 64.664 216.184 62.096L213.832 60.536ZM221.416 63.128C220.816 64.64 219.88 66.296 218.944 67.424C219.568 67.736 220.648 68.384 221.176 68.816C222.064 67.568 223.192 65.576 223.936 63.872L221.416 63.128ZM223.528 58.808H229.072V60.152H223.528V58.808ZM223.528 55.568H229.072V56.888H223.528V55.568ZM231.712 62.192V53.528H227.128C227.44 53.024 227.752 52.496 228.064 51.968L225.376 51.488H232.408V48.92H217.408V55.544C217.408 59.432 217.168 64.88 214.48 68.576C215.176 68.888 216.376 69.656 216.88 70.112C219.736 66.128 220.168 59.792 220.168 55.544V51.488H224.8C224.68 52.112 224.464 52.832 224.224 53.528H221.008V62.192H224.8V67.304C224.8 67.568 224.704 67.64 224.44 67.64C224.152 67.64 223.192 67.64 222.352 67.616C222.664 68.312 222.976 69.32 223.096 70.064C224.56 70.088 225.688 70.04 226.504 69.656C227.344 69.272 227.536 68.6 227.536 67.376V62.192H231.712ZM228.208 63.824C228.976 65.336 229.936 67.352 230.368 68.6L233.008 67.448C232.504 66.272 231.448 64.328 230.68 62.888L228.208 63.824ZM235.528 63.44C235.384 65.36 235.12 67.496 234.592 68.912C235.12 69.032 236.152 69.344 236.584 69.608C237.064 68.168 237.424 65.888 237.592 63.776L235.528 63.44ZM238.12 63.752C238.36 65.336 238.576 67.4 238.624 68.792L240.616 68.264C240.544 66.872 240.28 64.856 239.992 63.272L238.12 63.752ZM240.664 63.176C241.144 64.64 241.696 66.536 241.912 67.784L243.76 67.064C243.52 65.864 242.944 64.016 242.392 62.576L240.664 63.176ZM250.312 63.752C249.928 63.752 249.856 63.536 249.856 63.008V61.568H253.456V59.432H250.528L251.488 59.072C251.368 58.64 251.056 57.968 250.768 57.416H253.576V55.28H252.352C252.64 54.368 252.976 53.216 253.312 52.184L251.392 51.68C251.248 52.736 250.864 54.2 250.552 55.28H248.44L249.832 54.8C249.688 53.936 249.28 52.616 248.8 51.632L247.192 52.16C247.6 53.12 247.984 54.392 248.08 55.28H246.784V57.416H250.168L248.728 57.872C248.92 58.328 249.16 58.928 249.328 59.432H246.904V61.568H247.6V62.984C247.6 64.904 248.008 65.672 250.048 65.672H252.064C252.592 65.672 253.216 65.672 253.552 65.528C253.48 65 253.432 64.184 253.384 63.608C253.024 63.704 252.376 63.752 251.992 63.752H250.312ZM256.6 48.68H243.808V61.424C243.496 60.32 242.872 58.496 242.296 57.152L240.472 57.848C240.664 58.328 240.856 58.904 241.048 59.48L238.432 59.84C240.232 57.656 241.96 54.968 243.304 52.376L241.24 51.032C240.736 52.184 240.136 53.336 239.536 54.416L237.856 54.536C239.032 52.808 240.136 50.672 241 48.68L238.72 47.72C237.88 50.24 236.464 52.904 235.984 53.576C235.528 54.296 235.144 54.752 234.688 54.872C234.976 55.52 235.336 56.672 235.48 57.152C235.816 56.984 236.344 56.84 238.192 56.624C237.52 57.656 236.944 58.4 236.656 58.76C235.936 59.672 235.432 60.248 234.832 60.392C235.12 61.016 235.528 62.216 235.624 62.672C236.152 62.456 236.944 62.216 241.648 61.448C241.768 61.808 241.84 62.168 241.912 62.456L243.808 61.64V70.112H246.328V51.152H254.056V67.28C254.056 67.592 253.96 67.688 253.648 67.712C253.336 67.712 252.424 67.712 251.608 67.664C251.92 68.312 252.208 69.392 252.304 70.088C253.84 70.088 254.896 70.016 255.64 69.608C256.384 69.2 256.6 68.552 256.6 67.28V48.68ZM268.357 61.378L269.017 59.2C269.545 57.44 270.051 55.658 270.513 53.81H270.601C271.107 55.636 271.591 57.44 272.141 59.2L272.779 61.378H268.357ZM274.759 68H277.465L272.097 51.808H269.149L263.781 68H266.377L267.763 63.38H273.395L274.759 68ZM284.749 68.286C286.135 68.286 287.565 67.78 288.665 66.79L287.631 65.118C286.905 65.734 286.003 66.218 284.991 66.218C282.967 66.218 281.581 64.524 281.581 61.972C281.581 59.398 283.033 57.682 285.057 57.682C285.893 57.682 286.575 58.034 287.235 58.628L288.489 56.978C287.609 56.208 286.487 55.592 284.947 55.592C281.757 55.592 278.963 57.924 278.963 61.972C278.963 65.976 281.471 68.286 284.749 68.286ZM294.25 68.286C295.702 68.286 297 67.56 298.1 66.614H298.166L298.386 68H300.454V60.718C300.454 57.506 299.068 55.592 296.054 55.592C294.118 55.592 292.424 56.384 291.17 57.176L292.116 58.892C293.15 58.232 294.338 57.66 295.614 57.66C297.396 57.66 297.902 58.892 297.924 60.3C292.886 60.85 290.686 62.192 290.686 64.788C290.686 66.922 292.16 68.286 294.25 68.286ZM295.02 66.284C293.942 66.284 293.128 65.8 293.128 64.612C293.128 63.248 294.338 62.346 297.924 61.906V64.876C296.934 65.778 296.076 66.284 295.02 66.284ZM308.664 68.286C310.028 68.286 311.282 67.56 312.184 66.636H312.25L312.47 68H314.538V50.466H312.008V54.954L312.118 56.956C311.128 56.12 310.248 55.592 308.862 55.592C306.156 55.592 303.67 58.034 303.67 61.972C303.67 65.976 305.628 68.286 308.664 68.286ZM309.258 66.196C307.366 66.196 306.288 64.678 306.288 61.928C306.288 59.31 307.652 57.704 309.346 57.704C310.248 57.704 311.106 57.99 312.008 58.804V64.722C311.128 65.734 310.27 66.196 309.258 66.196ZM323.82 68.286C325.404 68.286 326.79 67.758 327.912 67.01L327.032 65.404C326.152 65.976 325.228 66.306 324.15 66.306C322.06 66.306 320.608 64.92 320.41 62.61H328.264C328.33 62.324 328.374 61.818 328.374 61.334C328.374 57.902 326.658 55.592 323.446 55.592C320.608 55.592 317.924 58.034 317.924 61.972C317.924 65.954 320.542 68.286 323.82 68.286ZM320.388 60.872C320.63 58.738 321.972 57.572 323.49 57.572C325.25 57.572 326.196 58.782 326.196 60.872H320.388ZM331.661 68H334.169V59.42C335.181 58.32 336.083 57.77 336.897 57.77C338.283 57.77 338.921 58.606 338.921 60.696V68H341.451V59.42C342.463 58.32 343.343 57.77 344.179 57.77C345.543 57.77 346.203 58.606 346.203 60.696V68H348.733V60.388C348.733 57.308 347.545 55.592 345.015 55.592C343.497 55.592 342.265 56.538 341.077 57.814C340.549 56.428 339.537 55.592 337.733 55.592C336.237 55.592 335.027 56.494 333.993 57.594H333.927L333.729 55.9H331.661V68ZM352.833 68H355.341V55.9H352.833V68ZM354.087 53.634C355.011 53.634 355.715 53.018 355.715 52.138C355.715 51.236 355.011 50.642 354.087 50.642C353.163 50.642 352.481 51.236 352.481 52.138C352.481 53.018 353.163 53.634 354.087 53.634ZM364.518 68.286C365.904 68.286 367.334 67.78 368.434 66.79L367.4 65.118C366.674 65.734 365.772 66.218 364.76 66.218C362.736 66.218 361.35 64.524 361.35 61.972C361.35 59.398 362.802 57.682 364.826 57.682C365.662 57.682 366.344 58.034 367.004 58.628L368.258 56.978C367.378 56.208 366.256 55.592 364.716 55.592C361.526 55.592 358.732 57.924 358.732 61.972C358.732 65.976 361.24 68.286 364.518 68.286ZM379.549 53.854H381.991C384.345 53.854 385.621 54.536 385.621 56.494C385.621 58.452 384.345 59.42 381.991 59.42H379.549V53.854ZM388.723 68L384.763 61.136C386.809 60.498 388.151 59.002 388.151 56.494C388.151 52.996 385.643 51.808 382.299 51.808H376.997V68H379.549V61.466H382.167L385.841 68H388.723ZM396.434 68.286C398.018 68.286 399.404 67.758 400.526 67.01L399.646 65.404C398.766 65.976 397.842 66.306 396.764 66.306C394.674 66.306 393.222 64.92 393.024 62.61H400.878C400.944 62.324 400.988 61.818 400.988 61.334C400.988 57.902 399.272 55.592 396.06 55.592C393.222 55.592 390.538 58.034 390.538 61.972C390.538 65.954 393.156 68.286 396.434 68.286ZM393.002 60.872C393.244 58.738 394.586 57.572 396.104 57.572C397.864 57.572 398.81 58.782 398.81 60.872H393.002ZM407.554 68.286C410.546 68.286 412.152 66.636 412.152 64.612C412.152 62.324 410.282 61.576 408.588 60.938C407.268 60.454 406.014 60.058 406.014 59.024C406.014 58.188 406.63 57.528 407.95 57.528C408.962 57.528 409.82 57.968 410.656 58.584L411.844 57.022C410.854 56.252 409.534 55.592 407.906 55.592C405.244 55.592 403.616 57.11 403.616 59.134C403.616 61.18 405.464 62.038 407.07 62.654C408.39 63.16 409.754 63.644 409.754 64.744C409.754 65.668 409.072 66.372 407.62 66.372C406.322 66.372 405.266 65.844 404.188 64.986L403 66.614C404.166 67.582 405.882 68.286 407.554 68.286ZM420.126 68.286C423.118 68.286 425.824 65.976 425.824 61.972C425.824 57.924 423.118 55.592 420.126 55.592C417.134 55.592 414.428 57.924 414.428 61.972C414.428 65.976 417.134 68.286 420.126 68.286ZM420.126 66.218C418.234 66.218 417.046 64.524 417.046 61.972C417.046 59.398 418.234 57.682 420.126 57.682C422.04 57.682 423.228 59.398 423.228 61.972C423.228 64.524 422.04 66.218 420.126 66.218ZM432.782 68.286C434.454 68.286 435.642 67.45 436.742 66.174H436.808L437.006 68H439.074V55.9H436.544V64.304C435.532 65.58 434.762 66.108 433.64 66.108C432.21 66.108 431.616 65.294 431.616 63.204V55.9H429.086V63.512C429.086 66.592 430.208 68.286 432.782 68.286ZM443.322 68H445.83V60.454C446.6 58.54 447.788 57.858 448.778 57.858C449.262 57.858 449.57 57.924 449.988 58.056L450.45 55.856C450.076 55.68 449.68 55.592 449.086 55.592C447.788 55.592 446.512 56.516 445.654 58.078H445.588L445.39 55.9H443.322V68ZM457.456 68.286C458.842 68.286 460.272 67.78 461.372 66.79L460.338 65.118C459.612 65.734 458.71 66.218 457.698 66.218C455.674 66.218 454.288 64.524 454.288 61.972C454.288 59.398 455.74 57.682 457.764 57.682C458.6 57.682 459.282 58.034 459.942 58.628L461.196 56.978C460.316 56.208 459.194 55.592 457.654 55.592C454.464 55.592 451.67 57.924 451.67 61.972C451.67 65.976 454.178 68.286 457.456 68.286ZM468.791 68.286C470.375 68.286 471.761 67.758 472.883 67.01L472.003 65.404C471.123 65.976 470.199 66.306 469.121 66.306C467.031 66.306 465.579 64.92 465.381 62.61H473.235C473.301 62.324 473.345 61.818 473.345 61.334C473.345 57.902 471.629 55.592 468.417 55.592C465.579 55.592 462.895 58.034 462.895 61.972C462.895 65.954 465.513 68.286 468.791 68.286ZM465.359 60.872C465.601 58.738 466.943 57.572 468.461 57.572C470.221 57.572 471.167 58.782 471.167 60.872H465.359Z" fill="white"/>
<g clip-path="url(#clip1_1_330)">
<path d="M270.19 10.652C270.298 10.6399 270.403 10.6091 270.5 10.5608C270.25 10.6115 270.121 10.652 270.19 10.652Z" fill="white"/>
<path d="M231.974 32.169L229.248 32.0778C228.849 31.9977 228.436 32.0187 228.046 32.1389C227.656 32.2591 227.301 32.4748 227.012 32.7669C225.834 32.5744 226.403 31.6724 226.403 31.6724C227.202 31.044 229.288 31.2771 229.288 31.2771C229.448 31.1427 229.573 30.971 229.652 30.7768C229.731 30.5826 229.763 30.3717 229.745 30.1623C229.726 29.9529 229.657 29.7512 229.545 29.5746C229.432 29.398 229.279 29.2519 229.099 29.1487C228.816 28.9353 228.489 28.7913 228.143 28.7279C227.796 28.6646 227.44 28.6838 227.102 28.7838C225.814 29.0879 226.194 28.0845 226.194 28.0845C227.861 25.9257 228.46 26.4933 228.46 26.4933C228.727 26.6688 229.028 26.7856 229.343 26.8362C229.657 26.8868 229.979 26.8701 230.287 26.7872C231.575 26.7264 230.816 24.9629 230.816 24.9629C230.397 23.9494 228.16 23.3007 228.16 23.3007C229.161 23.2359 230.161 23.4203 231.075 23.8379C232.434 23.8792 233.793 23.8012 235.139 23.6048C237.265 21.7095 235.219 20.3717 234.719 20.0474C232.723 18.7805 229.029 19.0845 229.029 19.0845C229.029 18.2534 228.31 18.5473 228.31 18.5473V17.7568C228.606 17.6867 228.866 17.5085 229.041 17.2562C229.216 17.0039 229.293 16.6951 229.258 16.3886C229.704 16.1347 230.058 15.7434 230.27 15.2715C230.482 14.7995 230.54 14.2714 230.437 13.7636C230.317 12.1014 227.861 12.7501 227.861 12.7501L223.308 13.4088L228.2 11.919C231.036 11.6859 230.197 9.89195 230.197 9.89195C229.897 9.55749 228.2 9.77033 227.422 9.89195C227.317 9.93976 227.206 9.97055 227.092 9.98316C227.012 9.98316 227.152 9.98316 227.422 9.89195C228.237 9.6557 228.944 9.13535 229.418 8.42235C229.518 8.00854 229.487 7.57332 229.329 7.17851C229.171 6.78371 228.895 6.44938 228.54 6.22303C228.256 6.08532 227.93 6.06356 227.631 6.16222C228.111 5.46507 228.384 4.64223 228.416 3.7921C228.448 2.94196 228.238 2.10049 227.811 1.3683C227.052 -0.0303522 224.057 5.27852e-05 224.057 5.27852e-05L224.247 1.76357C224.107 3.44621 223.83 5.11413 223.418 6.75005C222.919 8.07776 221.821 8.31086 219.585 8.38181C217.348 8.45276 216.819 9.21289 216.819 9.21289C216.671 9.77118 216.738 10.366 217.009 10.8751C216.929 11.6048 218.446 12.071 218.446 12.071L220.373 12.2028L220.763 12.3953L221.761 12.5372L220.663 13.0034L219.375 13.2365C218.466 12.7703 218.197 13.3987 217.967 13.5305C217.738 13.6622 217.059 13.3683 217.059 13.3683L216.46 13.8649V15.1926C216.739 15.3665 216.995 15.5778 217.218 15.821V18.8615L217.758 19.4291L218.057 20.0575L218.506 20.1284V20.5946L218.736 21.0913L218.966 21.7196C218.659 21.9803 218.297 22.1643 217.907 22.2568C217.325 22.5219 216.687 22.6368 216.05 22.5913C216.136 22.1776 216.098 21.7474 215.941 21.3558C215.785 20.9641 215.517 20.6285 215.172 20.3919C214.753 20.1909 214.276 20.151 213.83 20.2796C213.384 20.4081 212.999 20.6965 212.746 21.0913C212.621 21.751 212.43 22.3961 212.177 23.0169L212.297 25.3176C212.656 25.8548 212.476 25.5203 212.826 27.0406C213.395 28.9055 215.591 28.7028 215.591 28.7028C215.798 28.6702 215.995 28.5901 216.167 28.4687C216.339 28.3473 216.481 28.1877 216.583 28.0021C216.685 27.8164 216.744 27.6096 216.756 27.3973C216.767 27.1851 216.731 26.973 216.649 26.7771C216.656 26.6336 216.69 26.4929 216.752 26.3635C216.813 26.234 216.899 26.1184 217.005 26.0237C217.112 25.929 217.236 25.8572 217.37 25.8125C217.505 25.7678 217.647 25.7511 217.788 25.7636C217.966 25.5004 218.215 25.2946 218.505 25.1707C218.796 25.0467 219.115 25.0098 219.425 25.0642L219.874 25.4291C221.132 25.5305 220.563 26.2298 220.563 26.2298C219.749 26.9736 218.976 27.7619 218.247 28.5913C217.149 29.848 218.696 30.6791 218.696 30.6791C220.693 31.1453 223.408 29.7872 223.408 29.7872L223.248 30.3244C221.941 30.7328 220.674 31.2655 219.465 31.9156C218.144 32.2976 216.774 32.4753 215.401 32.4426V33.3751L217.398 34.8041C218.223 34.8061 219.042 34.6727 219.824 34.4088C220.773 34.0136 223.308 33.2433 223.308 33.2433V33.7805C222.447 33.9949 221.607 34.2936 220.802 34.6724C219.182 35.2373 217.509 35.6379 215.811 35.8683L212.816 36.0001L212.586 36.8007L214.403 38.0271C214.762 38.3938 215.214 38.6531 215.709 38.7765C216.204 38.8998 216.723 38.8825 217.208 38.7264C218.387 38.3615 218.766 38.5642 218.766 38.5642L219.225 38.0676C222.246 36.7753 225.439 35.9453 228.699 35.6048C230.365 35.4533 232.029 35.9018 233.402 36.8717C234.65 37.8852 234.769 36.6994 234.769 36.6994C236.506 35.9088 234.999 33.9122 234.999 33.9122C234.39 32.5136 232.004 32.2095 232.004 32.2095M223.149 18.1926L224.277 17.7365V18.2332L222.879 19.0946L221.212 18.9325L222.21 18.2332L223.149 18.1926ZM220.323 16.4088C219.684 15.9933 221.322 15.6386 221.322 15.6386C221.481 15.6386 222.32 15.3953 222.889 15.3244C223.458 15.2534 224.307 14.9595 224.446 15.3244C224.586 15.6892 223.528 16.1149 222.45 16.4494C221.372 16.7838 220.952 16.8345 220.313 16.4494M221.931 23.2602L221.172 23.1588V22.8953C221.292 22.8244 223.328 21.8818 223.328 21.8818L224.666 21.5068C224.666 21.5068 225.834 20.7163 231.485 20.7163V21.0406C230.972 20.9719 230.451 21.02 229.959 21.1812C229.466 21.3425 229.016 21.613 228.639 21.973L227.641 22.6723L227.072 22.0034C227.072 22.0034 226.543 21.2737 224.686 22.1048C222.829 22.9359 221.991 23.2399 221.991 23.2399" fill="white"/>
<path d="M252.12 25.8649L252.19 24.2332C251.458 24.2379 250.735 24.068 250.08 23.737C249.424 23.406 248.855 22.9233 248.417 22.3278C246.919 20.3007 247.538 21.0609 247.538 21.0609V19.2974C247.859 18.901 248.302 18.626 248.796 18.517C249.173 18.2428 249.601 18.0496 250.054 17.9494L250.493 17.5237L251.182 17.8075L251.432 11.5947L252.25 10.6724H254.696C255.15 11.1125 255.571 11.5868 255.954 12.0913C255.954 12.0913 256.204 12.0913 256.583 12.5879C256.583 12.5879 256.833 13.7838 257.142 14.8379L257.581 23.9595L258.46 24.1724C258.46 24.1724 259.219 24.3548 258.38 25.1859C258.196 25.5304 258.11 25.9197 258.13 26.3109C258.13 27.0609 258.041 28.0541 258.041 28.0541L256.413 29.3413L255.744 29.1487C254.778 30.6518 253.671 32.0569 252.44 33.3447C252.44 33.3447 250.443 36.446 248.337 35.5136C248.207 35.6048 247.588 36.071 246.46 34.7028C246.46 34.7028 245.821 34.4291 245.571 31.9359C245.521 31.7801 245.506 31.6147 245.528 31.4522C245.549 31.2897 245.607 31.1344 245.697 30.9978C245.786 30.8612 245.905 30.747 246.044 30.6637C246.183 30.5804 246.339 30.5302 246.5 30.517C246.91 30.6121 247.337 30.6121 247.748 30.517L249.255 28.7332L250.383 27.5068C250.383 27.5068 251.382 26.2805 251.771 26.2805L252.12 25.8649Z" fill="white"/>
<path d="M259.129 22.3783C259.426 20.8909 259.566 19.3756 259.548 17.858L260.546 12.304L261.385 8.53372V6.88169C261.367 6.63886 261.419 6.39595 261.534 6.1825C261.65 5.96905 261.824 5.79426 262.036 5.67938C262.247 5.56451 262.487 5.51449 262.726 5.53541C262.965 5.55633 263.193 5.64729 263.382 5.79724C263.382 5.79724 263.771 5.93913 264.929 8.34115L265.019 13.1452C265.019 13.1452 264.34 14.9797 264.55 15.2635C264.55 15.2635 267.854 14.7972 268.823 15.5979C269.074 15.6588 269.306 15.7838 269.496 15.9612C269.687 16.1386 269.83 16.3624 269.911 16.6114C269.911 16.6114 270.24 19.2972 269.452 19.8648C269.452 19.8648 268.613 21.7905 264.6 23.5337C264.6 23.5337 262.883 24.4763 262.833 25.6114C262.789 25.7675 262.778 25.931 262.801 26.0915C262.823 26.2521 262.878 26.4062 262.962 26.5439C262.962 26.5439 263.711 25.6114 264.26 25.7939H268.743C269.407 26.1114 270.015 26.5396 270.54 27.0607C270.54 27.0607 271.378 29.4222 270.959 29.8885C270.796 30.2797 270.539 30.6231 270.211 30.887C269.883 31.1509 269.495 31.3268 269.082 31.3986C267.657 32.0134 266.171 32.4721 264.65 32.7668C264.264 33.1079 263.953 33.5261 263.735 33.9954C263.517 34.4646 263.396 34.9745 263.382 35.4932H262.633C262.633 35.4932 259.249 34.6925 258.949 33.0405C258.949 33.0405 258.66 23.5844 259.159 22.358" fill="white"/>
<path d="M350.317 34.7837L350.018 34.6824C349.269 34.4797 341.592 31.6419 340.284 31.0641L337.778 29.8986C339.076 27.8716 341.133 20.3209 341.133 20.3209C341.306 19.9283 341.365 19.4937 341.303 19.0682C341.241 18.6427 341.061 18.244 340.783 17.9189C340.084 16.7027 338.787 17.625 338.787 17.625C338.038 18.0304 337.379 19.652 337.379 19.652C336.58 20.9797 335.881 20.777 335.881 20.777C335.782 19.4493 338.138 17.5641 338.138 17.5641C338.922 17.2183 339.609 16.6782 340.134 15.9932C341.282 14.9189 340.733 12.8817 340.733 12.8817C340.748 12.5897 340.661 12.3019 340.487 12.0684C340.314 11.835 340.065 11.6709 339.785 11.6047L338.627 11.7162C339.327 10.0275 339.768 8.23982 339.935 6.4155C340.134 4.53036 339.485 3.50672 337.369 3.05063C335.252 2.59455 335.262 3.8209 335.262 3.8209C335.434 5.30621 335.315 6.81134 334.913 8.24996C334.454 9.93512 334.121 11.6528 333.915 13.3885C333.206 17.0574 329.392 17.2601 329.392 17.2601C329.342 17.6655 328.643 17.8783 328.643 17.8783C328.044 17.5641 326.986 19.7635 326.986 19.7635L326.587 19.4493C326.743 18.4657 326.977 17.4963 327.286 16.5506C327.71 15.2907 328.474 14.1774 329.492 13.3378C329.891 13.0337 329.752 11.4527 329.752 11.4527C329.705 11.2844 329.598 11.1395 329.453 11.046C329.307 10.9525 329.133 10.9168 328.963 10.9459C328.324 10.6114 329.183 9.62834 329.183 9.62834V7.12496C329.502 5.69591 327.356 5.15874 327.356 5.15874C325.948 4.38847 325.848 6.03036 325.848 6.03036C325.848 6.03036 325.519 8.53374 325.199 10.8344C325.049 12.1426 324.485 13.3661 323.592 14.3209L320.597 16.0743C320.321 16.3359 320.016 16.5638 319.688 16.7533L319.978 17.7669C321.635 18.1216 321.485 18.7804 321.485 18.7804C321.719 18.8573 321.928 18.9983 322.088 19.1878C322.249 19.3774 322.354 19.6081 322.394 19.8547C322.877 19.9152 323.364 19.9456 323.851 19.9459C324.001 19.9459 324.151 20.7669 324.151 20.7669V23.2601C322.697 24.8778 321.324 26.5692 320.038 28.3277L319.489 28.581L317.931 30.9729C317.712 31.2553 317.562 31.5855 317.491 31.9373C317.42 32.2892 317.43 32.653 317.522 33C317.545 33.229 317.632 33.4465 317.774 33.6263C317.916 33.8061 318.105 33.9405 318.321 34.0135C319.179 34.9256 319.429 34.3682 319.429 34.3682C319.749 34.0819 320.104 33.8399 320.487 33.6486C320.687 33.6486 320.986 33.3952 320.986 33.3952L322.983 30.3547C323.981 28.9763 324.241 29.4324 324.241 29.4324C324.59 29.8986 324.59 32.7466 324.59 32.7466C323.768 32.469 322.894 32.3824 322.034 32.4932C322.05 33.1233 322.3 33.7241 322.733 34.1756C323.455 34.5726 324.143 35.0303 324.79 35.5439C325.489 36.3648 327.196 38.25 327.645 38.1993C329.103 38.554 329.003 36.6182 329.003 36.6182C329.178 36.2888 329.264 35.9181 329.252 35.5439C328.254 34.3783 328.504 33.6081 328.504 33.6081C333.366 33.9223 335.173 33 335.173 33C336.78 34.1907 338.446 35.2969 340.164 36.3141C342.87 37.8952 347.941 37.3783 347.941 37.3783C347.863 36.9941 347.813 36.6045 347.792 36.2128L348.79 36.0608C350.497 36.1114 350.297 34.7837 350.297 34.7837M327.745 21.2331C327.994 20.7145 328.179 20.1663 328.294 19.6013L328.544 19.5C329.077 20.0968 329.647 20.6588 330.251 21.1824C330.704 21.2495 331.124 21.4627 331.449 21.7905L331.399 23.625C331.14 23.5663 330.899 23.4429 330.698 23.2659C330.498 23.0889 330.344 22.864 330.251 22.6114C330.251 22.6114 329.043 22.3581 328.793 22.3581C328.651 22.3491 328.512 22.3114 328.384 22.2471C328.257 22.1829 328.143 22.0933 328.05 21.9838C327.957 21.8742 327.886 21.7469 327.843 21.6093C327.799 21.4716 327.783 21.3265 327.795 21.1824M332.108 30.304C331.109 31.0135 328.044 30.8614 328.044 30.8614C327.768 30.7661 327.531 30.5772 327.375 30.3263C327.219 30.0755 327.152 29.7779 327.186 29.4831V24.8513C327.076 23.6756 327.985 25.1756 327.985 25.1756L332.198 29.331C333.445 30.0405 332.148 30.3446 332.148 30.3446M335.602 27.3851C334.803 27.6486 333.605 26.4729 333.605 26.4729C333.006 26.0168 334.064 25.652 334.064 25.652L336.72 24.9425C336.615 25.8655 336.207 26.7257 335.562 27.3851" fill="white"/>
<path d="M365.103 19.3783C365.103 19.3783 369.885 19.9763 370.574 16.8648L370.803 6.34452C370.803 6.34452 370.114 4.07425 372.511 4.43911C372.511 4.43911 375.935 5.39181 375.705 8.73641C375.476 12.081 375.476 14.8175 375.476 14.8175L378.67 12.5472C378.67 12.5472 380.607 11.108 382.204 13.733C382.204 13.733 382.893 16.7736 381.206 17.6857C379.519 18.5979 377.902 20.7871 374.827 22.4594C374.836 23.8751 374.644 25.2849 374.258 26.6452C374.258 26.6452 381.326 25.4492 384.401 27.7195C384.401 27.7195 387.595 30.831 388.624 33.1013C388.624 33.1013 389.073 36.2026 387.715 36.4459C387.011 36.7148 386.232 36.7046 385.535 36.4172C384.837 36.1299 384.272 35.5865 383.951 34.8952C382.446 33.9376 380.87 33.0974 379.239 32.3817C377.382 31.2568 375.592 30.0216 373.878 28.6824C373.878 28.6824 372.88 32.7364 370.005 34.7634C370.005 34.7634 366.93 38.3513 361.339 35.6047C360.871 35.4084 360.471 35.0771 360.187 34.6519C359.903 34.2268 359.748 33.7264 359.742 33.2128C359.751 33.0592 359.792 32.9093 359.862 32.7729C359.932 32.6364 360.029 32.5164 360.148 32.4208C360.266 32.3252 360.404 32.256 360.55 32.2178C360.697 32.1797 360.85 32.1733 361 32.1992C361 32.1992 366.7 30.6486 368.637 26.706L368.976 25.2871C368.976 25.2871 366.58 25.2871 365.582 23.7972C364.711 22.805 364.085 21.617 363.755 20.331V19.3783H365.103Z" fill="white"/>
<path d="M419.742 15.9123C418.891 15.4217 417.935 15.1503 416.957 15.1217L415.309 15.0406C415.309 15.0406 417.306 6.6082 417.216 4.10482C417.216 4.10482 417.975 3.44604 416.787 2.61496L416.368 1.98658H414.371C413.962 2.9359 413.262 3.72531 412.374 4.23658C412.374 4.23658 411.276 4.06428 411.775 4.89536C411.775 4.89536 411.945 5.4832 413.213 5.40212C413.345 5.42064 413.471 5.4657 413.586 5.53465C413.7 5.6036 413.8 5.69505 413.879 5.80362C413.958 5.9122 414.015 6.03572 414.046 6.16692C414.077 6.29813 414.083 6.43437 414.061 6.56766V8.09807C414.061 8.09807 413.173 8.55415 412.833 7.22644C412.833 7.22644 412.494 5.97982 410.547 6.14198C410.547 6.14198 411.905 3.56766 410.977 1.98658C410.977 1.98658 410.467 1.1555 408.98 2.07779C408.856 2.13875 408.749 2.22821 408.666 2.33901C408.582 2.44981 408.526 2.57887 408.501 2.71583C408.475 2.85279 408.482 2.99385 408.52 3.1277C408.558 3.26154 408.627 3.38446 408.72 3.48658C408.803 4.33321 408.686 5.18756 408.381 5.97982C408.163 5.82401 407.916 5.71414 407.656 5.6567C407.395 5.59925 407.126 5.5954 406.863 5.64536C406.863 5.64536 406.614 2.49334 404.757 2.73658C404.757 2.73658 403.649 3.07104 403.649 3.9832C404.09 5.67213 404.374 7.39926 404.497 9.14198L405.086 17.9494C405.043 18.0618 404.968 18.1584 404.87 18.2264C404.772 18.2945 404.656 18.331 404.537 18.331C404.419 18.331 404.303 18.2945 404.205 18.2264C404.107 18.1584 404.031 18.0618 403.988 17.9494C403.988 17.9494 403.489 13.9562 403.489 11.9697C403.489 11.9697 404.837 8.55415 402.73 6.2332C402.73 6.2332 401.373 4.57104 400.364 4.7332C400.241 4.71399 400.115 4.73252 400.001 4.78641C399.888 4.84031 399.794 4.92713 399.73 5.03583C399.665 5.14453 399.634 5.27018 399.641 5.39678C399.647 5.52338 399.69 5.6452 399.765 5.74672C400.194 6.76023 399.855 6.25347 400.105 6.99334C400.105 6.99334 401.632 12.4866 401.373 15.2231C401.418 16.2341 401.603 17.2337 401.922 18.1927L402.091 19.267C401.59 19.3686 401.123 19.5989 400.734 19.9359C400.734 19.9359 399.556 19.1048 399.046 20.2704C398.713 21.3214 398.713 22.4524 399.046 23.5035C399.356 24.3156 399.61 25.1487 399.805 25.9967C399.805 25.9967 400.564 28.4089 401.582 27.3244C401.582 27.3244 402.68 26.4123 401.832 23.6758C401.721 23.0134 401.523 22.3691 401.243 21.7602C402.295 21.4937 403.304 21.0738 404.238 20.5136C404.238 20.5136 407.782 18.7704 410.398 17.8582C410.398 17.8582 413.153 17.4427 412.983 18.1927C412.983 18.1927 413.273 18.5981 411.755 18.6893C409.525 19.3092 407.415 20.31 405.516 21.6487C404.979 22.0266 404.376 22.2951 403.739 22.4393C403.739 22.4393 402.9 22.3075 402.9 22.9764C402.9 22.9764 403.489 24.5575 404.497 24.7197C404.497 24.7197 405.096 25.1352 406.953 24.8008C407.302 25.3078 407.559 25.8742 407.712 26.4731C407.071 26.9062 406.357 27.2155 405.606 27.3852C405.034 27.532 404.486 27.7607 403.978 28.0643C402.9 28.1413 401.838 28.3733 400.823 28.7535L400.873 30.0406C401.356 30.5463 401.965 30.9081 402.636 31.0868C403.306 31.2655 404.012 31.2542 404.677 31.0541C406.311 30.6955 407.918 30.2248 409.489 29.6454C409.489 29.6454 410.248 29.2298 410.248 30.6589C410.248 30.6589 410.677 34.1454 407.712 34.8143C407.712 34.8143 402.99 34.9764 401.802 34.4798H400.454C400.454 34.4798 399.775 36.0609 402.301 36.8008C402.613 37.4261 403.102 37.9425 403.705 38.2838C404.308 38.6251 404.997 38.7757 405.685 38.7163C405.685 38.7163 410.627 39.3041 410.967 37.2163C411.859 36.1068 412.453 34.7809 412.689 33.3684C412.926 31.9559 412.796 30.5054 412.314 29.1589L416.158 29.0778C416.571 29.4239 417.074 29.64 417.606 29.6994C418.138 29.7588 418.676 29.659 419.153 29.4123C419.153 29.4123 420.501 27.9933 418.055 26.3717L417.925 25.5812C417.925 25.5812 418.215 24.8008 415.689 24.8818L412.694 24.9629C412.694 24.9629 410.917 25.794 411.416 24.3751C411.416 24.3751 412.185 22.3481 413.283 21.9731C413.283 21.9731 417.586 20.0575 418.095 19.946C418.604 19.8346 420.201 19.3582 420.201 19.3582C420.201 19.3582 422.318 18.7805 419.782 15.8717M411.066 10.1352C411.066 10.1352 411.566 9.88185 411.695 10.196C411.825 10.5102 411.506 10.8852 411.066 10.946V10.1352ZM406.813 8.45279L407.323 8.51361C407.249 8.59852 407.203 8.70504 407.192 8.81792C407.181 8.9308 407.206 9.04423 407.263 9.14198C407.263 9.14198 407.383 9.88185 406.434 9.38523C406.434 9.38523 406.374 8.63523 406.813 8.45279ZM407.383 15.9325L407.073 16.8041C407.073 16.8041 406.185 16.6825 406.504 15.4967C406.504 15.4967 406.624 14.8785 406.694 14.3717L407.632 14.4427C407.632 14.4427 407.193 15.4562 407.383 15.9325ZM409.219 10.3886C408.919 10.7944 408.665 11.2329 408.461 11.696C408.461 11.696 408.591 12.6285 407.702 12.3143C407.64 12.0425 407.655 11.7584 407.745 11.4948C407.835 11.2311 407.997 10.9988 408.211 10.8244L408.72 9.88185L408.65 9.38523C408.65 9.38523 409.289 8.8278 409.549 9.38523C409.569 9.75318 409.451 10.1152 409.219 10.3987M410.997 14.5744C410.877 13.8244 409.729 13.5609 409.729 13.5609L409.669 12.6285C409.988 12.446 410.238 11.615 410.238 11.615C410.522 12.0587 410.674 12.5758 410.677 13.1048C410.747 13.794 411.885 14.7264 411.885 14.7264L411.945 15.3548C410.947 15.2839 410.877 14.7974 410.997 14.544M409.998 22.6521C409.79 22.962 409.499 23.2047 409.16 23.3514C408.521 23.7467 408.161 23.5136 408.161 23.5136C408.12 23.4445 408.092 23.3677 408.08 23.2877C408.068 23.2076 408.072 23.1259 408.091 23.0474C408.409 22.6669 408.809 22.3653 409.259 22.1656C410.258 21.9325 409.998 22.6521 409.998 22.6521ZM412.943 12.7501C412.68 12.7022 412.436 12.5751 412.244 12.3852C412.304 11.696 413.452 11.9494 413.452 11.9494C413.445 12.1168 413.394 12.2792 413.305 12.4199C413.215 12.5606 413.091 12.6746 412.943 12.7501Z" fill="white"/>
<path d="M184.273 12.3446C184.273 12.3446 186.809 9.90208 185.271 7.69262C185.271 7.69262 183.464 6.22303 186.719 5.97979C187.544 5.42475 188.53 5.17151 189.515 5.26179C190.501 5.35206 191.427 5.78047 192.14 6.47641C192.469 6.67819 192.754 6.9443 192.981 7.25924C193.207 7.57418 193.369 7.93166 193.458 8.31087C193.458 8.31087 194.067 11.2501 193.098 11.9798C193.098 11.9798 185.87 15.0203 184.543 15.1622C184.23 15.3495 183.865 15.4271 183.504 15.3832C183.143 15.3392 182.807 15.1761 182.546 14.919C182.996 13.9606 183.608 13.0895 184.353 12.3446" fill="white"/>
<path d="M179.771 18.9425L180.889 17.6756C180.889 17.6756 180.889 17.1891 182.207 17.3108C182.96 17.0537 183.697 16.7491 184.413 16.3986C185.661 15.7905 189.405 13.9763 191.152 13.7939C192.899 13.6114 194.247 13.5506 194.726 14.402C194.938 14.931 194.959 15.5192 194.786 16.0626C194.612 16.6059 194.255 17.0696 193.777 17.3716C193.777 17.3716 190.373 20.6351 188.586 20.4628C188.586 20.4628 187.807 21.304 188.826 21.304C189.643 20.8923 190.539 20.6642 191.451 20.6351C191.451 20.6351 194.905 20.5135 196.104 22.4594C196.104 22.4594 197.172 24.6993 194.306 26.2094C193.601 26.8197 192.846 27.3689 192.05 27.8513C193.169 27.9374 194.271 28.1795 195.325 28.5709C195.325 28.5709 197.321 29.2398 197.651 27.7297C198.963 28.497 200.208 29.3751 201.375 30.3547C201.375 30.3547 203.282 31.875 202.802 33.3243C202.802 33.3243 202.084 35.8074 199.997 34.8445C199.997 34.8445 195.644 32.179 192.36 32.7263C188.271 32.3929 184.164 33.0566 180.38 34.6621C180.38 34.6621 177.385 36.6891 175.787 35.6756C175.787 35.6756 173.791 35.3108 173.222 34.4695C173.222 34.4695 172.383 33.8614 172.563 31.9864C172.563 31.9864 172.692 31.3783 173.761 31.0743C174.904 31.1672 176.055 31.0644 177.165 30.7702C179.032 30.4873 180.866 30.0084 182.636 29.3412C184.253 28.5506 190.093 25.581 191.621 23.3412L191.851 22.7432C191.851 22.7432 192.04 21.9527 190.852 23.1587C190.852 23.1587 184.473 27.9425 182.496 28.3682C182.496 28.3682 179.102 29.1587 179.042 27.0405C179.042 27.0405 178.443 26.027 181.308 22.6216C181.532 22.5561 181.738 22.44 181.911 22.282C182.083 22.124 182.219 21.9282 182.306 21.7094C182.306 21.7094 181.767 20.6959 181.308 20.6959L179.771 18.9425Z" fill="white"/>
<path d="M336.43 19.0846L336.54 18.7805C336.502 18.8208 336.473 18.8686 336.454 18.9209C336.435 18.9732 336.427 19.0289 336.43 19.0846Z" fill="white"/>
<path d="M307.678 17.8277L307.479 16.5608L306.37 16.3581C305.325 16.4132 304.289 16.5935 303.286 16.8953C302.826 15.5676 303.944 8.2399 303.944 8.2399C304.552 6.75052 304.552 5.07726 303.944 3.58787C303.608 3.11049 303.155 2.7304 302.63 2.48512C302.104 2.23984 301.525 2.13785 300.949 2.18922L300.82 3.71963C300.555 5.03281 300.444 6.37325 300.49 7.71287C299.685 7.09716 298.744 6.69037 297.749 6.52787C296.754 6.36537 295.734 6.45207 294.78 6.78044L294.85 9.11152C295.157 9.33631 295.39 9.65022 295.518 10.012C295.646 10.3738 295.664 10.7665 295.568 11.1386L295.449 11.9392C294.201 12.5372 294.131 14.4021 294.131 14.4021C293.822 14.871 293.692 15.4374 293.764 15.9965C293.835 16.5555 294.104 17.0693 294.52 17.4426C293.931 17.8379 292.753 18.4561 292.753 18.4561C292.661 18.4588 292.57 18.4798 292.486 18.5181C292.403 18.5563 292.327 18.6111 292.264 18.6791C292.264 18.7804 292.204 18.8818 292.164 18.9933C292.156 18.8794 292.192 18.767 292.264 18.6791C292.883 16.6521 292.264 16.0642 292.264 16.0642C292.072 15.0508 292.137 14.0044 292.453 13.0237C292.853 12.0634 292.947 11.0004 292.723 9.98315L292.593 9.51693C294.81 7.4899 293.242 5.9899 293.242 5.9899L293.182 5.18922L292.913 5.26017L291.864 4.12504H291.146L289.708 3.64869L289.508 5.91895C288.071 6.18247 284.996 9.37504 284.996 9.37504C284.174 10.1983 283.546 11.1996 283.159 12.3041C281.981 14.0372 283.548 14.169 283.548 14.169C284.685 13.4425 285.869 12.7957 287.092 12.2331L288.53 11.2196C289.528 10.5608 289.189 11.5541 289.189 11.5541L288.27 13.8852C288.27 13.8852 284.716 17.4933 283.908 18.1926C283.454 18.5994 282.946 18.9404 282.4 19.2061L280.693 19.2771C280.622 19.9599 280.78 20.6471 281.143 21.2268C281.506 21.8065 282.051 22.2446 282.69 22.4696C284.457 23.1994 285.834 20.7365 285.834 20.7365L285.964 21.2027L283.798 25.3277C282.571 27.1252 281.846 29.2267 281.701 31.4088C282.091 32.6757 284.786 33.3345 284.786 33.3345C285.375 33.5372 285.894 31.7331 285.894 31.7331C286.224 31.7331 287.082 30.0102 287.082 30.0102C287.225 29.8967 287.401 29.8351 287.582 29.8351C287.763 29.8351 287.938 29.8967 288.081 30.0102C288.196 31.3087 288.393 32.5985 288.67 33.8717C288.8 37.196 289.978 37.2669 289.978 37.2669C292.404 37.2669 291.884 34.2264 291.884 34.2264L290.577 26.4426C290.98 26.2522 291.302 25.9214 291.485 25.5102C291.295 24.9122 292.274 25.3784 292.274 25.3784C295.029 26.8379 298.833 22.5811 298.833 22.5811C299.831 21.6487 299.751 23.0473 299.751 23.0473L299.941 37.0845C302.167 40.7433 303.096 37.7534 303.096 37.7534V21.9527C302.637 20.8176 303.026 20.8886 303.026 20.8886C303.699 20.5606 304.335 20.1596 304.923 19.6926C306.83 20.3514 307.409 19.2872 307.409 19.2872C308.267 18.9527 307.678 17.8277 307.678 17.8277ZM297.934 19.2061C296.705 20.1367 295.414 20.98 294.071 21.7298C293.653 21.8208 293.252 21.9781 292.883 22.196L295.049 19.3379C295.049 19.3379 295.568 18.5372 295.309 18.3244L296.686 18.6588C296.686 18.6588 296.756 19.0642 297.405 18.7906L298.783 18.2635C299.108 18.2145 299.42 18.1008 299.701 17.9291C299.701 17.9291 299.771 18.3953 297.934 19.196M299.831 14.3311C299.831 14.3311 299.701 14.7365 297.675 14.0676C297.097 13.9473 296.527 13.7916 295.968 13.6014L296.227 13.2669C296.644 12.8284 297.144 12.4787 297.696 12.2386C298.248 11.9984 298.841 11.8725 299.442 11.8683L299.771 11.544H300.161C299.844 12.4356 299.731 13.3887 299.831 14.3311Z" fill="white"/>
<path d="M161.92 5.20938C162.14 4.54046 160.393 3.76005 160.393 3.76005C159.295 2.74654 157.218 3.6587 157.218 3.6587C154.403 3.10127 146.945 6.03033 145.647 6.53708C144.349 7.04384 141.953 8.19924 141.953 8.19924C140.93 9.00883 139.834 9.71809 138.679 10.3175C138.426 10.5996 138.269 10.956 138.23 11.3351C138.19 11.7141 138.271 12.0961 138.459 12.4256H139.218C140.755 12.0911 139.767 14.0878 139.767 14.0878C138.569 16.6418 138.13 21.6384 138.13 21.6384C138.269 25.1524 138.212 28.6715 137.96 32.179C138.619 37.6215 142.443 36.6182 142.443 36.6182C144.553 36.1582 146.634 35.5659 148.672 34.8445C150.393 34.2407 152.228 34.0499 154.033 34.2871C154.297 34.9607 154.752 35.5394 155.341 35.9492C157.338 36.7296 160.263 37.8445 160.263 37.8445C160.739 37.9061 161.222 37.8578 161.676 37.7034C162.131 37.549 162.545 37.2923 162.889 36.9526C162.942 36.3059 162.828 35.6562 162.559 35.0675C163.108 34.2871 162.12 19.4188 162.12 19.4188C162.889 16.3074 162.999 8.27019 162.999 8.27019C163.428 5.22965 161.9 5.16884 161.9 5.16884M143.421 13.8242L144.519 11.2702C144.519 11.2702 144.789 10.5101 145.388 11.3817C145.541 11.5918 145.65 11.8314 145.708 12.0859C145.767 12.3404 145.773 12.6043 145.727 12.8614C145.081 13.2561 144.518 13.7761 144.07 14.3918L143.201 15.4053C143.201 15.4053 142.443 15.6283 143.421 13.8547M140.815 21.456C140.815 21.456 140.815 20.7263 141.814 20.5033C141.814 20.5033 142.542 20.7263 141.963 21.2432C141.43 21.8206 141.034 22.5139 140.805 23.2702L140.815 21.456ZM140.636 28.3276L140.785 26.1283C140.785 26.1283 140.785 25.9053 141.724 25.9053H143.161C143.191 25.9918 143.204 26.0834 143.198 26.1748C143.192 26.2662 143.169 26.3555 143.129 26.4376C143.089 26.5197 143.033 26.5929 142.965 26.6529C142.897 26.7129 142.818 26.7585 142.732 26.7871C142.732 26.7871 142.013 26.3411 141.295 28.3276C141.295 28.3276 141.215 28.9864 140.636 28.3276ZM146.775 31.4695L141.215 32.8682L141.075 32.0574L141.724 31.8344L144.32 31.4695L145.408 31.0337L146.406 30.5979C146.406 30.5979 148.133 27.9526 149.79 27.4459C149.79 27.4459 146.795 30.0101 146.795 31.4999M149.102 24.4053C148.369 24.799 147.71 25.3204 147.155 25.9459C147.155 25.9459 146.865 26.2398 146.576 26.0878C146.576 26.0878 148.313 23.8175 148.572 23.8175H149.361C149.361 23.8175 149.211 22.7229 149.94 22.4999L150.589 22.7229C150.494 23.1094 150.306 23.4658 150.041 23.7596C149.776 24.0534 149.443 24.2754 149.072 24.4053M150.939 30.6992V30.2634L152.456 28.9459C152.456 28.9459 153.035 28.429 153.454 29.3107L154.103 30.6283L150.939 30.6992ZM153.464 18.831C153.464 18.831 153.175 20.3006 152.666 20.6655C152.148 19.92 151.917 19.0078 152.017 18.1013C152.017 18.1013 152.166 17.4425 151.298 16.5607C151.298 16.5607 150.579 15.1722 152.017 14.9492C152.555 14.2354 152.927 13.4074 153.105 12.5269C153.105 12.5269 154.043 10.0438 152.017 9.38506C151.259 9.37503 150.521 9.63302 149.93 10.1148L149.571 9.456C150.774 8.85022 152.04 8.38116 153.345 8.05735C153.413 9.23272 153.655 10.3909 154.063 11.4932C154.063 11.4932 155.291 12.304 155.361 12.8107C154.935 14.8881 154.265 16.9059 153.364 18.8209M157.927 29.0878C156.82 27.8509 155.916 26.4409 155.251 24.9121C155.251 24.9121 154.393 22.8851 156.34 19.5607C157.009 18.1472 157.541 16.6706 157.927 15.1519C158.152 14.5954 158.223 13.9873 158.133 13.3928C158.044 12.7982 157.796 12.2396 157.418 11.7769C157.418 11.7769 157.128 11.1891 158.147 11.483C158.147 11.483 160.093 10.1655 157.418 7.23641C157.418 7.23641 157.857 6.06073 158.795 7.09451C158.795 7.09451 159.305 7.23641 159.305 9.12154C159.305 11.0067 157.927 29.0878 157.927 29.0878ZM146.206 19.5405C146.486 19.4391 147.205 19.4492 147.384 19.6925C147.564 19.9357 146.875 21.456 146.875 21.456L146.087 22.2668C146.087 22.2668 145.318 22.5911 145.088 22.4797C144.859 22.3682 144.829 21.9019 144.829 21.9019L144.948 21.233L145.208 20.4121C145.487 20.0892 145.802 19.8001 146.146 19.5506" fill="white"/>
</g>
<defs>
<clipPath id="clip0_1_330">
<rect width="113.39" height="66.75" fill="white" transform="translate(0 2.25)"/>
</clipPath>
<clipPath id="clip1_1_330">
<rect width="283" height="39" fill="white" transform="translate(138)"/>
</clipPath>
</defs>
</svg>
